<svg width="130" height="38" viewBox="0 0 130 38" fill="none" xmlns="http://www.w3.org/2000/svg">
<path d="M84.3115 7.66211C85.1759 7.66211 85.9077 7.94642 86.4092 8.57812L86.5684 8.78809C86.9313 9.30017 87.2381 9.96523 87.5 10.7607L91.3496 21.96L93.125 16.7646C93.4551 15.7998 93.7588 15.0269 94.0371 14.457C94.3161 13.8858 94.6453 13.4163 95.0557 13.1484L95.0654 13.1426C95.4861 12.8798 96.0213 12.7783 96.6143 12.7783C97.1081 12.7784 97.5756 12.9149 98.0068 13.1768C98.4447 13.4227 98.7872 13.7652 99.0234 14.2002C99.2689 14.6299 99.3964 15.0922 99.3965 15.5791C99.3965 15.7676 99.3426 15.9802 99.2979 16.1445C99.2437 16.3435 99.1916 16.5115 99.1348 16.7324C99.0171 17.19 98.874 17.6533 98.7051 18.1211L98.6992 18.1338L93.835 30.5967C93.2501 32.1606 92.6696 33.4139 92.0889 34.3379C91.4841 35.3 90.675 36.0408 89.6689 36.5508C88.6575 37.0821 87.3356 37.3262 85.7461 37.3262C84.2145 37.3261 82.9937 37.1622 82.1367 36.791C81.6769 36.5918 81.3012 36.2959 81.0459 35.8916C80.792 35.4894 80.6807 35.018 80.6807 34.5059C80.6807 33.8022 80.8949 33.1857 81.3809 32.7344L81.3955 32.7217C81.8942 32.2918 82.5747 32.1192 83.3496 32.1191C83.666 32.1192 83.9768 32.1621 84.2803 32.2461C84.582 32.3157 84.8241 32.3456 85.0098 32.3457C85.5575 32.3457 85.9273 32.2623 86.1602 32.1416C86.3861 32.0243 86.6228 31.8008 86.8525 31.418L86.8613 31.4023C87.1122 31.0146 87.4128 30.4135 87.7607 29.5811L88.1494 28.6348L81.8877 12.8691C81.5016 11.958 81.2656 11.2042 81.2656 10.6709C81.2656 10.1335 81.4053 9.62874 81.6816 9.16797C81.9559 8.71107 82.3307 8.34496 82.7969 8.07422C83.273 7.80641 83.7845 7.66224 84.3115 7.66211Z" fill="#333333"/>
<path d="M11.4639 0C13.2022 3.62e-05 14.7281 0.218155 16.0303 0.668945L16.5078 0.838867C17.5972 1.25137 18.5319 1.78593 19.3018 2.44824C20.1619 3.17613 20.8124 3.96249 21.2295 4.81055C21.6369 5.63897 21.8516 6.46823 21.8516 7.29297C21.8515 8.10181 21.5568 8.82975 21 9.45996C20.4326 10.1039 19.7003 10.4336 18.8418 10.4336C18.1178 10.4335 17.4775 10.2559 17.0059 9.81934L16.9902 9.80469C16.6075 9.42183 16.2188 8.83831 15.8203 8.09277L15.8154 8.08301L15.8115 8.07324C15.3334 7.08125 14.7725 6.33896 14.1426 5.82129C13.5823 5.35104 12.6002 5.05566 11.0859 5.05566C9.71659 5.05567 8.66664 5.35904 7.88965 5.91699C7.11629 6.46939 6.79199 7.08244 6.79199 7.76465C6.792 8.21431 6.91246 8.57664 7.1377 8.87695C7.38547 9.2072 7.73702 9.50604 8.21094 9.76562C8.70881 10.0383 9.20979 10.2502 9.71289 10.4023C10.2396 10.5616 11.119 10.7973 12.3584 11.1104C13.9326 11.4785 15.3609 11.8865 16.6396 12.334C17.9461 12.7867 19.0704 13.3417 20.001 14.0059L20.3516 14.2705C21.1466 14.904 21.7782 15.6792 22.2422 16.5928L22.3428 16.792C22.828 17.8038 23.0586 19.0035 23.0586 20.3711C23.0585 22.1411 22.5971 23.7456 21.6709 25.1699C20.7516 26.6029 19.4079 27.711 17.668 28.502C15.9225 29.2954 13.8743 29.6826 11.5391 29.6826C8.74491 29.6826 6.39216 29.1557 4.51367 28.0635C3.1831 27.2784 2.09266 26.229 1.25488 24.9258C0.435172 23.6168 5.47263e-05 22.3062 0 21.0127C0 20.1964 0.285676 19.4826 0.850586 18.9023C1.43681 18.3007 2.18289 18.0039 3.04688 18.0039C3.76349 18.0039 4.39484 18.2366 4.9043 18.7139C5.39857 19.1652 5.78814 19.8044 6.09473 20.5908C6.43509 21.441 6.79326 22.1368 7.16602 22.6855L7.30762 22.873C7.65402 23.3033 8.1165 23.6775 8.70898 23.9893C9.34938 24.314 10.2311 24.4951 11.3877 24.4951C12.9665 24.4951 14.1903 24.1308 15.1055 23.4502C16.0332 22.757 16.4561 21.9394 16.4561 20.9746C16.456 20.1759 16.2141 19.5774 15.7637 19.127L15.7559 19.1191C15.272 18.6133 14.6273 18.2147 13.8018 17.9355C12.9465 17.6423 11.7817 17.325 10.3057 16.9873C8.29552 16.5166 6.58922 15.9657 5.20117 15.3301C3.79642 14.6675 2.65548 13.7611 1.80469 12.6133C0.946673 11.4231 0.528366 9.96187 0.52832 8.27441C0.52832 6.64803 0.973867 5.18613 1.87109 3.9082C2.77045 2.62732 4.06201 1.66286 5.71289 1.00195L6.02539 0.879883C7.60476 0.28881 9.42131 0 11.4639 0Z" fill="#333333"/>
<path d="M29.1758 0.660156C29.9796 0.660239 30.6979 0.967589 31.3145 1.54004C31.7484 1.94304 32.024 2.44482 32.1348 3.02832L32.1738 3.23242C32.259 3.73001 32.2979 4.37128 32.2979 5.1416V8.11523H33.6484C34.4502 8.1153 35.1499 8.30769 35.6602 8.77539C35.6625 8.77748 35.6656 8.7801 35.668 8.78223C36.1722 9.22769 36.4307 9.81883 36.4307 10.501C36.4307 10.9182 36.347 11.3098 36.1523 11.6504C35.9564 11.993 35.6654 12.2505 35.3066 12.4307C34.6552 12.7638 33.777 12.9062 32.7236 12.9062H32.2979V21.8428C32.2979 22.6331 32.3222 23.228 32.3682 23.6377C32.4186 23.9758 32.5328 24.2234 32.6895 24.4082C32.8018 24.5179 33.031 24.6269 33.4971 24.627C33.7483 24.627 34.1182 24.5844 34.6211 24.4863C35.1438 24.3721 35.5868 24.3067 35.9316 24.3066C36.506 24.3067 37.0056 24.5463 37.416 24.9658L37.4316 24.9805C37.8716 25.4111 38.0907 25.956 38.0908 26.5791C38.0908 27.0984 37.9479 27.5766 37.6523 27.9912C37.3609 28.3999 36.9411 28.7196 36.4307 28.9678C35.4179 29.4601 34.0202 29.6826 32.2891 29.6826C30.6339 29.6826 29.2923 29.4071 28.3359 28.7842C27.3958 28.1716 26.7688 27.3137 26.4697 26.2314C26.2015 25.212 26.0723 23.877 26.0723 22.2578V12.9062H25.9297C25.1092 12.9062 24.3939 12.7114 23.8711 12.2393C23.3648 11.7819 23.1094 11.1886 23.1094 10.501C23.1094 9.80682 23.3772 9.2153 23.9043 8.77051C24.4509 8.3073 25.1904 8.11525 26.043 8.11523H26.0723V5.55664C26.0723 4.72153 26.0914 4.05713 26.1309 3.57031L26.1318 3.55664C26.1886 3.01827 26.3338 2.53118 26.582 2.1123C26.8322 1.67781 27.1884 1.33301 27.6357 1.07715L27.8125 0.978516C28.2311 0.765339 28.6887 0.660168 29.1758 0.660156Z" fill="#333333"/>
<path d="M53.9639 7.66211C54.8629 7.66211 55.629 7.9701 56.207 8.60742C56.8012 9.24974 57.0488 10.1743 57.0488 11.2744V26.2021C57.0488 27.2528 56.8071 28.1402 56.2314 28.7676C55.6817 29.3801 54.9604 29.6826 54.1152 29.6826C53.2659 29.6826 52.536 29.3723 51.9658 28.7559L51.957 28.7451C51.5313 28.2602 51.2855 27.6526 51.1904 26.9521C50.8269 27.326 50.453 27.6651 50.0664 27.9658C49.3375 28.5327 48.5384 28.9535 47.6709 29.2246C46.8034 29.5082 45.8282 29.6455 44.7549 29.6455C43.4332 29.6455 42.2269 29.3703 41.1484 28.8105C40.0846 28.2513 39.2466 27.4723 38.6523 26.4775C37.9415 25.2647 37.6133 23.5774 37.6133 21.4844V11.2744C37.6133 10.1743 37.86 9.24974 38.4541 8.60742C39.032 7.96984 39.7982 7.66222 40.6973 7.66211C41.6085 7.66211 42.3872 7.96959 42.9785 8.60742C43.5824 9.25915 43.8388 10.1804 43.8389 11.2744V19.5215C43.8389 20.689 43.9376 21.6491 44.125 22.4111L44.1982 22.6729C44.3833 23.26 44.6665 23.7083 45.0322 24.041C45.4382 24.3877 46.0113 24.5897 46.8115 24.5898C47.5659 24.5898 48.2818 24.3676 48.9668 23.9072C49.6465 23.4502 50.1356 22.8607 50.4463 22.1338C50.5608 21.8441 50.665 21.3276 50.7363 20.54C50.8067 19.7633 50.8418 18.7644 50.8418 17.54V11.2744C50.8418 10.1803 51.0991 9.25916 51.7031 8.60742C52.2925 7.97171 53.0626 7.66225 53.9639 7.66211Z" fill="#333333"/>
<path fill-rule="evenodd" clip-rule="evenodd" d="M77.0547 0C77.9602 0 78.7244 0.299017 79.2617 0.950195C79.8013 1.57595 80.0263 2.4495 80.0264 3.48047V26.2021C80.0264 27.2558 79.7833 28.1457 79.2041 28.7734C78.6414 29.3829 77.9092 29.6826 77.0547 29.6826C76.2054 29.6825 75.4755 29.3723 74.9053 28.7559L74.8965 28.7451C74.4806 28.2714 74.2376 27.6748 74.1377 26.9854C73.72 27.3945 73.3025 27.7565 72.8828 28.0674C72.1687 28.5928 71.3852 28.9925 70.5371 29.2617C69.6978 29.5446 68.7856 29.6826 67.8076 29.6826C66.4975 29.6826 65.2721 29.4076 64.1387 28.8545C63.0213 28.2891 62.0482 27.486 61.2354 26.46C60.4224 25.4337 59.8078 24.2342 59.3877 22.8691C58.9813 21.5057 58.7783 20.0331 58.7783 18.4648C58.7783 15.1599 59.5867 12.5085 61.2705 10.582C62.9532 8.65715 65.1747 7.69936 67.8828 7.69922C69.4251 7.69922 70.7646 7.96738 71.877 8.5293L72.2832 8.74512C72.8983 9.09275 73.4981 9.53309 74.084 10.0615V3.74512C74.084 2.63137 74.3004 1.69527 74.8174 1.02148C75.3611 0.334159 76.1353 7.12503e-05 77.0547 0ZM69.3555 12.585C68.5223 12.585 67.7903 12.8219 67.1426 13.2939C66.4977 13.7531 65.9711 14.4361 65.5869 15.3672C65.2164 16.2834 65.0234 17.3688 65.0234 18.6348C65.0235 19.9788 65.2304 21.09 65.6211 21.9863C66.0273 22.8897 66.5633 23.5437 67.2178 23.9805C67.885 24.4131 68.6059 24.6269 69.3926 24.627C70.2003 24.627 70.9248 24.4209 71.5781 24.0117C72.2289 23.5994 72.7635 22.9652 73.1689 22.0732C73.5799 21.1827 73.8008 20.042 73.8008 18.6348C73.8008 17.321 73.5827 16.2255 73.1699 15.3311C72.7634 14.4136 72.2084 13.7303 71.5391 13.2803C70.8729 12.8139 70.149 12.585 69.3555 12.585Z" fill="#333333"/>
<path fill-rule="evenodd" clip-rule="evenodd" d="M115.819 0C118.759 3.8382e-05 121.313 0.599678 123.46 1.82324C125.619 3.03459 127.256 4.7711 128.36 7.01855C129.46 9.24518 130 11.8453 130 14.8037C130 16.9907 129.704 18.9926 129.104 20.8037C128.504 22.6182 127.601 24.201 126.391 25.543C125.176 26.8899 123.684 27.9168 121.927 28.625C120.166 29.3345 118.164 29.6826 115.933 29.6826C113.712 29.6826 111.704 29.3282 109.919 28.6064C108.14 27.8739 106.64 26.8398 105.438 25.5049C104.238 24.1738 103.335 22.5783 102.723 20.7285C102.125 18.8833 101.827 16.8918 101.827 14.7656C101.827 12.5887 102.137 10.5795 102.762 8.74316C103.4 6.90635 104.324 5.32598 105.537 4.02051C106.751 2.71416 108.228 1.72114 109.958 1.03906L110.285 0.912109C111.937 0.300582 113.785 4.11886e-05 115.819 0ZM115.819 5.52734C114.77 5.5274 113.807 5.72738 112.925 6.12207C112.057 6.5039 111.301 7.06646 110.66 7.8125C110.037 8.5517 109.526 9.51534 109.141 10.7207C108.77 11.9045 108.581 13.2512 108.581 14.7656C108.581 16.2944 108.771 17.6627 109.143 18.874C109.527 20.0843 110.053 21.0703 110.712 21.8467L110.973 22.1289C111.588 22.764 112.27 23.2447 113.017 23.5781L113.347 23.7129C114.127 24.0064 114.975 24.1552 115.895 24.1553C117.234 24.1553 118.453 23.8217 119.562 23.1562L119.769 23.0283C120.775 22.3732 121.596 21.3956 122.222 20.0664C122.895 18.6609 123.246 16.8988 123.246 14.7656C123.246 12.7968 122.928 11.1184 122.311 9.7168C121.694 8.31841 120.824 7.2881 119.708 6.59766C118.595 5.8903 117.3 5.52739 115.819 5.52734Z" fill="#333333"/>
<path d="M98.6172 6.66602C99.3715 6.66602 100.049 6.91726 100.628 7.4082C101.26 7.94381 101.543 8.70754 101.543 9.6084C101.543 10.4881 101.266 11.2412 100.663 11.7959L100.656 11.8008C100.083 12.3132 99.3944 12.5703 98.6172 12.5703C97.822 12.5702 97.1165 12.3172 96.5303 11.8057L96.5254 11.8008C95.9153 11.2548 95.6387 10.4967 95.6387 9.6084C95.6388 8.77017 95.9354 8.05076 96.5361 7.49609L96.7627 7.30371C97.303 6.88352 97.9262 6.6661 98.6172 6.66602Z" fill="#333333"/>
</svg>
